HIERARCHY
ROOT Hips
{
  OFFSET -6.66364 93.2088 94.7139
  CHANNELS 6 Xposition Yposition Zposition Zrotation Xrotation Yrotation
  JOINT RightUpLeg
  {
    OFFSET -8.9458 -8.66707 0.101652
    CHANNELS 3 Zrotation Xrotation Yrotation
    JOINT RightLeg
    {
      OFFSET 0 -44.4227 1.3727
      CHANNELS 3 Zrotation Xrotation Yrotation
      JOINT RightFoot
      {
        OFFSET 0.253549 -42.0924 -1.46059
        CHANNELS 3 Zrotation Xrotation Yrotation
        JOINT RightToes
        {
          OFFSET 0.04 -4.41509 8.4991
          CHANNELS 3 Zrotation Xrotation Yrotation
          End Site
          {
            OFFSET -0.08 -0.137448 9.77979
          }
        }
      }
    }
  }
  JOINT Spine
  {
    OFFSET 0 11.8905 0
    CHANNELS 3 Zrotation Xrotation Yrotation
    JOINT Spine1
    {
      OFFSET 0 25.6574 0.127663
      CHANNELS 3 Zrotation Xrotation Yrotation
      JOINT HEad
      {
        OFFSET 0 8.73416 0.011341
        CHANNELS 3 Zrotation Xrotation Yrotation
        End Site
        {
          OFFSET -0.29 12.7742 2.51395
        }
      }
      JOINT LeftShoulder1
      {
        OFFSET 8.99 -0.362252 -0.22
        CHANNELS 3 Zrotation Xrotation Yrotation
        JOINT LeftArm
        {
          OFFSET 10.2827 -0.00338 0.322123
          CHANNELS 3 Zrotation Xrotation Yrotation
          JOINT LeftForeArm
          {
            OFFSET 32.7669 0.099144 -1.42434
            CHANNELS 3 Zrotation Xrotation Yrotation
            JOINT LeftHand
            {
              OFFSET 27.5643 0.085362 1.02216
              CHANNELS 3 Zrotation Xrotation Yrotation
              End Site
              {
                OFFSET 16.7443 -0.6 1.50291
              }
            }
          }
        }
      }
      JOINT RightShoulder
      {
        OFFSET -8.99 -0.362252 -0.22
        CHANNELS 3 Zrotation Xrotation Yrotation
        JOINT RightArm
        {
          OFFSET -10.2827 -0.00338 0.322123
          CHANNELS 3 Zrotation Xrotation Yrotation
          JOINT RightForeArm
          {
            OFFSET -32.8971 0.099144 -1.42434
            CHANNELS 3 Zrotation Xrotation Yrotation
            JOINT RightHand
            {
              OFFSET -27.4921 0.085362 1.02216
              CHANNELS 3 Zrotation Xrotation Yrotation
              End Site
              {
                OFFSET -16.6312 -0.6 1.50291
              }
            }
          }
        }
      }
    }
  }
  JOINT LeftUpLeg
  {
    OFFSET 8.9458 -8.66707 0.101652
    CHANNELS 3 Zrotation Xrotation Yrotation
    JOINT LeftLeg
    {
      OFFSET 0 -44.4227 1.3727
      CHANNELS 3 Zrotation Xrotation Yrotation
      JOINT LeftFoot
      {
        OFFSET -0.253549 -42.0924 -1.46059
        CHANNELS 3 Zrotation Xrotation Yrotation
        JOINT LeftToes
        {
          OFFSET -0.04 -4.41509 8.4991
          CHANNELS 3 Zrotation Xrotation Yrotation
          End Site
          {
            OFFSET 0.08 -0.047448 9.77979
          }
        }
      }
    }
  }
}
MOTION
Frames:	10
Frame Time:	0.0166667
12.9131 89.8516 117.19 -2.98019 15.5487 -166.594 -25.0618 -7.49756 17.9839 44.3066 39.7542 -54.5209 -27.2275 1.19631 -1.28209 0.0462048 0.000533403 0.662642 -1.44896 25.8964 -1.94398 0.00135547 0.03362 0.0094209 2.19571 2.44659 14.5307 -1.98785e-016 1.59028e-015 -0 -126.536 -58.3855 -105.069 -56.6421 57.4208 -52.9103 21.8232 13.7305 -22.4998 17.5071 8.16562 -1.99064 108.205 -6.27737 74.828 26.6796 56.2528 90.8558 22.3855 23.3008 -4.03086 25.1939 -9.18733 -4.79117 -49.3309 16.6591 73.3393 27.3812 -0.977431 1.04405 -1.26095e-008 1.56034e-007 -4.88727e-009 
12.4366 91.1857 116.939 -3.18633 15.518 -166.825 -24.9567 -6.47582 17.4601 41.5676 38.2599 -52.0112 -22.1211 0.750015 -1.24432 0.0462048 0.000533403 0.662642 -2.6668 26.6125 -1.56084 0.00136023 0.00466 0.0094209 2.2462 2.1918 14.7008 -9.93923e-016 1.59028e-015 1.59028e-015 -131.798 -56.9244 -110.039 -61.4776 59.5752 -50.2319 23.0624 10.4342 -29.509 15.4637 9.08223 -2.7772 108.968 -6.20123 76.8074 25.3151 55.3951 91.145 26.361 27.2661 -10.168 24.259 -9.09732 -6.91223 -47.8176 17.295 73.7735 20.5598 -1.1496 0.795477 -1.26095e-008 1.56034e-007 -4.88727e-009 
12.0753 92.4071 116.691 -3.40004 15.4845 -167.065 -24.7465 -5.17038 16.6176 38.497 36.4376 -48.9467 -17.2874 0.360815 -1.14886 0.0462048 0.000533403 0.662642 -3.90739 27.3143 -1.1743 0.00136082 0.00109 0.0094209 2.27101 1.91321 14.9127 1.19271e-015 -1.59028e-015 -0 -138.185 -54.5091 -116.02 -69.2055 62.048 -45.3838 23.8655 9.79138 -30.9695 13.8728 9.62021 -3.39969 109.418 -6.2967 78.4849 21.8994 55.0524 92.351 26.3991 28.1567 -10.8095 23.5932 -8.86155 -9.0735 -46.6514 18.0232 74.5799 9.90737 -1.3237 0.340171 -1.26095e-008 1.56034e-007 -4.88727e-009 
11.8222 93.5304 116.445 -3.72048 15.4082 -167.293 -24.8995 -3.82149 15.698 36.6308 33.3574 -45.9356 -13.8845 -0.237991 -1.02282 0.0462048 0.000533403 0.662642 -5.16079 27.9085 -0.876771 0.00136087 0.000789058 0.0094209 2.08778 1.66869 15.2088 0 0 -1.59028e-015 -147.673 -49.5377 -124.516 -83.628 64.0196 -31.5127 24.0201 12.8462 -25.1192 13.2213 9.11 -3.58554 109.011 -6.73449 79.4642 11.9516 56.3153 97.4606 18.0321 21.8723 -0.242951 22.9803 -8.82543 -10.9688 -46.969 18.8792 77.553 1.99848 -0.766827 -0.00658407 -1.26095e-008 1.56034e-007 -4.88727e-009 
10.3109 94.749 115.318 -4.20859 15.3119 -167.515 -26.1367 -1.11696 15.2089 34.8937 28.9026 -41.925 -10.464 -0.826799 -0.929013 0.0462048 0.000533403 0.662642 -6.4978 28.3915 -0.632754 0.00136069 0.00183999 0.0094209 1.70325 1.4838 15.5439 7.95139e-016 -3.18055e-015 1.59028e-015 -157.109 -42.4327 -132.299 -102.515 63.4654 -11.9255 24.7852 12.2699 -26.0609 12.4381 8.6419 -3.7656 108.765 -6.62897 80.3285 6.16754 56.4498 100.384 16.917 20.3027 0.721908 21.7491 -10.1267 -11.7355 -48.269 21.763 84.5319 -0.125215 -1.17086 -0.386864 -1.26095e-008 1.56034e-007 -4.88727e-009 
9.03701 95.9731 114.3 -4.9467 15.2248 -167.703 -27.1407 1.12893 14.5757 35.7803 23.0201 -39.0524 -16.1445 -1.36199 -0.956539 0.0462048 0.000533403 0.662642 -7.98926 28.3905 -0.496096 0.00136035 0.00391093 0.0094209 1.09115 1.76693 15.9412 1.98785e-015 -4.77083e-015 1.59028e-015 -165.613 -34.3066 -138.123 -120.45 59.5866 7.47198 25.0786 13.9253 -22.4914 11.5151 8.66109 -3.8861 108.517 -6.02289 80.9429 2.86757 56.2224 102.025 14.6271 17.1096 4.68881 20.8825 -12.573 -11.0664 -50.8388 26.5206 93.5989 -5.05674 -1.0892 -0.987783 -1.26095e-008 1.56034e-007 -4.88727e-009 
7.98497 97.2653 113.395 -7.80714 15.0332 -167.741 -30.5225 3.35943 14.5327 37.5265 17.4195 -36.256 -22.4669 -2.13704 -1.27484 0.0462048 0.000533403 0.662642 -11.6697 28.1825 0.0218259 0.0013599 0.00666999 0.0094209 -1.17114 2.39591 16.0106 3.97569e-016 1.59028e-015 -0 -170.662 -29.1306 -141.221 -129.421 55.4954 17.2038 25.8688 13.5518 -22.9253 10.6448 9.12255 -3.91209 104.351 -2.76431 81.7483 0.174193 52.0435 101.783 15.4348 16.77 4.05512 17.9478 -15.314 -8.7013 -52.7412 32.2087 101.18 -9.67933 -1.13439 -1.31428 -1.26095e-008 1.56034e-007 -4.88727e-009 
7.13237 98.3728 112.589 -12.3532 14.9021 -167.674 -36.1179 5.8283 15.1687 39.7371 12.238 -33.252 -28.8291 -2.87622 -1.74926 0.0462048 0.000533403 0.662642 -17.0264 27.8545 0.897464 0.00135914 0.01126 0.0094209 -4.94376 3.36173 15.7771 7.95139e-016 -4.77083e-015 -0 -173.524 -26.5587 -143.025 -133.277 52.7456 21.7489 25.9814 14.7032 -20.5295 9.83156 9.96254 -3.71491 97.8285 2.24109 82.3603 -3.15221 45.6714 101.245 14.9178 15.2761 5.70052 12.9806 -17.8709 -4.941 -53.0636 38.9107 106.623 -14.0374 -0.917551 -1.23892 -1.26095e-008 1.56034e-007 -4.88727e-009 
6.36344 99.2525 111.801 -18.26 15.0395 -167.542 -43.8764 8.5679 16.7564 39.8887 9.15826 -29.847 -24.9961 -3.57094 -1.90281 0.0462048 0.000533403 0.662642 -23.6279 27.52 2.21434 0.00135826 0.01662 0.0094209 -8.61464 4.56464 15.7686 1.98785e-016 0 -0 -171.451 -28.8369 -142.777 -129.15 54.0775 18.2761 26.1132 14.8616 -20.4528 8.89084 11.0654 -3.0846 93.5367 5.25272 83.0615 -0.646785 46.1529 98.0608 29.7909 13.8834 8.26042 5.80017 -19.8101 -0.226499 -49.8706 47.3221 106.466 -18.9043 -0.754394 -0.582744 -1.26095e-008 1.56034e-007 -4.88727e-009 
5.56896 99.7922 110.972 -23.2436 15.2258 -167.461 -50.9513 10.9094 18.3247 39.5654 6.83276 -26.7948 -20.2691 -4.17559 -1.74478 0.0462048 0.000533403 0.662642 -28.8911 26.7458 3.22382 0.00135757 0.02085 0.0094209 -12.2511 5.92555 15.967 -6.95746e-016 1.59028e-015 7.95139e-016 -166.119 -34.1395 -140.784 -118.413 57.255 8.52102 25.6324 15.9574 -18.5376 7.93261 12.3075 -2.1682 90.6949 7.20351 83.5934 1.24815 45.8999 95.8354 13.4926 18.8709 4.09536 -0.249389 -22.574 5.2868 -46.7678 55.722 100.807 -20.1065 -0.74615 0.18599 -1.26095e-008 1.56034e-007 -4.88727e-009 
